<svg
  xmlns="http://www.w3.org/2000/svg"
  xmlns:xlink="http://www.w3.org/1999/xlink"
  viewBox="0 0 750 500"
  preserveAspectRatio="xMidYMax slice"
>
  <path
    d="M390.93,226.87c2.22,2.08,2,4.89.48,7.24,1.83-1.75,8.12,2.24,7,4.89,2.51-4.08,4.36.31,5.85,2.31,1.26-2.7,3.68-6,5.7-2.13-.93-2.73,5.66-6.2,7.34-4.32-3.67-5.08,3.49-10.18,7.21-7.31-.39-.7-4.61-4.33-12.39-3.17,3.63,5.77-3.22,9.07-5.56,9.51a2.88,2.88,0,0,0-.64-2.28c-.36.36-.32,1.06-.52,1.48a7.6,7.6,0,0,0-2.13-.14c0-.42-.15-1.09-.5-1.32a4,4,0,0,0-.68,2.32c-2.39-.72-8.67-4.51-4.66-9.87-7.67-1.78-12.17,1.51-12.61,2.17C385.25,225.74,389.24,225.21,390.93,226.87Z"
    fill="#112129"
  />
</svg>