<svg
  xmlns="http://www.w3.org/2000/svg"
  xmlns:xlink="http://www.w3.org/1999/xlink"
  viewBox="0 0 750 500"
  preserveAspectRatio="xMidYMax slice"
>
<g id="bats" >
      <path
        d="M486.65,187a9.22,9.22,0,0,1-4.29,6.38l-.06-.06c-.05-1.13-.06-2.62-.94-3.52a3.34,3.34,0,0,1,.15,1.63,1.9,1.9,0,0,0-1.66-.09,3.31,3.31,0,0,1,.33-1.61c-1,.81-1.05,2.22-1.37,3.38-3.9-5.13-5.67-10.29-13.64-9.74,5.67,3.29,5.9,10.62,12.85,11.87.09,6.46,4.06,6.69,4.88.28l-.2.1.18-.35c0,.08,0,.16,0,.25,7-.48,8.08-7.73,14.09-10.38A22.64,22.64,0,0,0,486.65,187Z"
        fill="#112129"
      />
      <path
        d="M390.93,226.87c2.22,2.08,2,4.89.48,7.24,1.83-1.75,8.12,2.24,7,4.89,2.51-4.08,4.36.31,5.85,2.31,1.26-2.7,3.68-6,5.7-2.13-.93-2.73,5.66-6.2,7.34-4.32-3.67-5.08,3.49-10.18,7.21-7.31-.39-.7-4.61-4.33-12.39-3.17,3.63,5.77-3.22,9.07-5.56,9.51a2.88,2.88,0,0,0-.64-2.28c-.36.36-.32,1.06-.52,1.48a7.6,7.6,0,0,0-2.13-.14c0-.42-.15-1.09-.5-1.32a4,4,0,0,0-.68,2.32c-2.39-.72-8.67-4.51-4.66-9.87-7.67-1.78-12.17,1.51-12.61,2.17C385.25,225.74,389.24,225.21,390.93,226.87Z"
        fill="#112129"
      />
      <path
        d="M430.89,152.88c-4.51,1.05,1.45-4.11-8.29-4.45-.47-4.18-5.81-4.39-8.89-5.1,2.82-2.94,8.14-3.47,12.12-3.3,2.3.49,6.16.37,7.5,2.31-1,3,4.29,12,5.26,5.94,2.05,3.21,5,.12,4.19,2-.45.53-1,2.54.08,2.34,4.46-.88,5.75-6.35,8.69-8.63,4.73-.13,12,1,13.29,6.25-5.84-2.77-7.67-2.4-10.21,2.8-2.93-.77-5.74.92-7.26,3.33-3.3-2.2-7.59.35-11,2.2.05-1.76-.79-4.15-2.71-4.6C433.18,152.94,431.88,152.9,430.89,152.88Z"
        fill="#112129"
        fill-rule="evenodd"
      />
      <path
        d="M538.33,214.5s-2.52,6.57,2.07,7.47c-1.53.45-4.23,3.88-2.25,6.85-2.2-1.83-10.48,6.4-8.65,8.74-1.4-2.25-4.54-1.85-4.77,1-1.07-3.42-2.36-1.61-2.34.63-1.16-3.75-4.22-1.39-4.6.9-.4-5.23-9.49-5.18-11.89-3.51,1.45-2.79-2-6.28-4.59-5.95,0,0,1.62-5.85-3.43-7.48,6.16-3.41,16.13,10,22.07,8.92a8.47,8.47,0,0,1-.9-4.23l1.53,1.71,1.27-.09,1-2.7C525.28,238.88,530.76,216.88,538.33,214.5Z"
        fill="#112129"
      />
      <path
        d="M458.17,279.73c3.54.59,5.51,4.7,2.22,7.27,2.87-.72,4,4.71,2.47,5.94,4.88-1.34,9.07,5.6,8.25,9.17,3-1.07,4.18,4.15,3.52,5.52.89-1.82,3.82-5.49,5.73-1.71,2.43-5,7.84-6,12.35-3.64-1.94-4.42,4-5.2,6.22-3.91-1.29-3.74,1.35-5.73,4.78-4.66-7.88-8.5-15.53-.91-22.4,2.76a30.2,30.2,0,0,0,1-3.23l-4.33,3-1.56-5-.89,2.8C471.29,286,471.52,277,458.17,279.73Z"
        fill="#112129"
      />
    </g>
</svg>