<svg
  xmlns="http://www.w3.org/2000/svg"
  xmlns:xlink="http://www.w3.org/1999/xlink"
  viewBox="0 0 750 500"
  preserveAspectRatio="xMidYMax slice"
>
  <path
    d="M458.17,279.73c3.54.59,5.51,4.7,2.22,7.27,2.87-.72,4,4.71,2.47,5.94,4.88-1.34,9.07,5.6,8.25,9.17,3-1.07,4.18,4.15,3.52,5.52.89-1.82,3.82-5.49,5.73-1.71,2.43-5,7.84-6,12.35-3.64-1.94-4.42,4-5.2,6.22-3.91-1.29-3.74,1.35-5.73,4.78-4.66-7.88-8.5-15.53-.91-22.4,2.76a30.2,30.2,0,0,0,1-3.23l-4.33,3-1.56-5-.89,2.8C471.29,286,471.52,277,458.17,279.73Z"
    fill="#112129"
  />
</svg>