<svg
  xmlns="http://www.w3.org/2000/svg"
  xmlns:xlink="http://www.w3.org/1999/xlink"
  viewBox="0 0 750 500"
  preserveAspectRatio="xMidYMax slice"
>
  <path
    d="M486.65,187a9.22,9.22,0,0,1-4.29,6.38l-.06-.06c-.05-1.13-.06-2.62-.94-3.52a3.34,3.34,0,0,1,.15,1.63,1.9,1.9,0,0,0-1.66-.09,3.31,3.31,0,0,1,.33-1.61c-1,.81-1.05,2.22-1.37,3.38-3.9-5.13-5.67-10.29-13.64-9.74,5.67,3.29,5.9,10.62,12.85,11.87.09,6.46,4.06,6.69,4.88.28l-.2.1.18-.35c0,.08,0,.16,0,.25,7-.48,8.08-7.73,14.09-10.38A22.64,22.64,0,0,0,486.65,187Z"
    fill="#112129"
  />
</svg>