<svg
  xmlns="http://www.w3.org/2000/svg"
  xmlns:xlink="http://www.w3.org/1999/xlink"
  viewBox="0 0 750 500"
  preserveAspectRatio="xMidYMax slice"
>
  <path
    d="M538.33,214.5s-2.52,6.57,2.07,7.47c-1.53.45-4.23,3.88-2.25,6.85-2.2-1.83-10.48,6.4-8.65,8.74-1.4-2.25-4.54-1.85-4.77,1-1.07-3.42-2.36-1.61-2.34.63-1.16-3.75-4.22-1.39-4.6.9-.4-5.23-9.49-5.18-11.89-3.51,1.45-2.79-2-6.28-4.59-5.95,0,0,1.62-5.85-3.43-7.48,6.16-3.41,16.13,10,22.07,8.92a8.47,8.47,0,0,1-.9-4.23l1.53,1.71,1.27-.09,1-2.7C525.28,238.88,530.76,216.88,538.33,214.5Z"
    fill="#112129"
  />
</svg>