<svg
  xmlns="http://www.w3.org/2000/svg"
  xmlns:xlink="http://www.w3.org/1999/xlink"
  viewBox="0 0 750 500"
  preserveAspectRatio="xMidYMax slice"
>
  <path
    d="M430.89,152.88c-4.51,1.05,1.45-4.11-8.29-4.45-.47-4.18-5.81-4.39-8.89-5.1,2.82-2.94,8.14-3.47,12.12-3.3,2.3.49,6.16.37,7.5,2.31-1,3,4.29,12,5.26,5.94,2.05,3.21,5,.12,4.19,2-.45.53-1,2.54.08,2.34,4.46-.88,5.75-6.35,8.69-8.63,4.73-.13,12,1,13.29,6.25-5.84-2.77-7.67-2.4-10.21,2.8-2.93-.77-5.74.92-7.26,3.33-3.3-2.2-7.59.35-11,2.2.05-1.76-.79-4.15-2.71-4.6C433.18,152.94,431.88,152.9,430.89,152.88Z"
    fill="#112129"
    fill-rule="evenodd"
  />
</svg>