<svg
  xmlns="http://www.w3.org/2000/svg"
  xmlns:xlink="http://www.w3.org/1999/xlink"
  viewBox="0 0 750 500"
  preserveAspectRatio="xMidYMax slice"
>
  <path
    id="bird"
    d="M110.61,428.6c-2.5,2.06-13.64-.79-17.86.84,0,0,1-2.72,2-2,0,0-.12-1.36-1.07-1.21a3.73,3.73,0,0,0-3.88.79s-1.65-.58-2.32-.24c0,0-5.63-5.13-9.77-9.69S65.91,410,64,403.62c0,0-.81,2.45,2.63,6.06,0,0-5.81-5-6.19-7.68a10.73,10.73,0,0,0,4,7.44c-1.93-1.61-3.54-3.69-5.54-5.23l0-.06a.28.28,0,0,0,0,.06c0,1.75,2,3.92,3.22,5.57-1.37,0-4.53-5.34-4.08-3.26a2.1,2.1,0,0,1-.13-.26,13.7,13.7,0,0,0,2.74,4.58c-.53-.07-1.69-1.6-1.86-.88a1.19,1.19,0,0,1-.09-.15c-.16,0,1.38,4.78,4.17,6.74-3-.23,4,4.44,5.37,4.34.4,1.4,3.53,3.2,3.86,4.5,2.33,2.76,4.63,7.07,8.58,8,.46,3.8-10.7,6-4.75,7.88a2.43,2.43,0,0,0,2.36,1.48c.2,1,1.59,1.14,2.38.73.3.49,1.61,2,2,1.31a29.91,29.91,0,0,1,2.58-7.4c.48-.2.89-.53,1.37-.71-.47,1.42,2.28-.32,3-.38a50.42,50.42,0,0,0,11-1.25c.85.59,2.52,1.46,2.37-.34,1.23,1.09,4.19,1,1.77-1a3.33,3.33,0,0,0,2.63,0,6.86,6.86,0,0,1-1.71-1.15c1.88.38,6.14-.19,2.11-1.38A3.77,3.77,0,0,0,110.61,428.6Z"
    fill="#16122b"
  />
</svg>