<svg
  xmlns="http://www.w3.org/2000/svg"
  xmlns:xlink="http://www.w3.org/1999/xlink"
  viewBox="0 0 750 500"
  preserveAspectRatio="xMidYMax slice"
>
  <g id="clouds" fill="#fefefe">
    <path
      id="cloud4"
      d="M402.34,341.68c9.9-10.24,23.76-7.43,36.05-5.48C448,332,458.88,329,468.9,334c-.95-7.91,8.65-14.92,15.9-11.61-3.34-11.77,13-13.9,20.53-8.34A13.53,13.53,0,0,1,522,310.16c2.64-18.11,27.85-24.13,38.38-9.17,3.54-5.51,12.12-6.88,17.2-2.74,6.59-43.22,70.78-27.93,65.83,12.62,14.7-4.43,32,6.72,34.08,21.93,5.76-2.23,29.28,1,21.76,9.26"
    />
  </g>
</svg>