<svg
  xmlns="http://www.w3.org/2000/svg"
  xmlns:xlink="http://www.w3.org/1999/xlink"
  viewBox="0 0 750 500"
  preserveAspectRatio="xMidYMax slice"
>
<defs>
<linearGradient
    id="grad9"
    x1="508.16"
    y1="321.39"
    x2="726.97"
    y2="623.69"
    gradientUnits="userSpaceOnUse"
  >
    <stop offset="0.01" stop-color="#120e22" />
    <stop offset="1" stop-color="#221d42" />
  </linearGradient>
</defs>

      
      
  <path
    id="h1-1"
    d="M761.44,506.06c-5.65-.19,10.92-182.57-7.17-162-1.31-2.92,9.88-6.67.34-5.87-4.24-.44,1-4-1.72-4.8-2.49-.42,1.86-4.33-2.2-3.39-8.74-1.35,7.4-5.58.13-5.93-1.16.14-2.66-.83-2.15-1.87,5.62-4.46-4.52-.31-1.81-4,4.06-1.59,1.25-2.59-1.55-2.52-.43-.22.51-6.83-2.86-4,1.48,7.41-6.36,2.56-2.25,6.56,5.14,3-5-.25-.08,5.06-7.81-.36,1.8,3.26-1.33,5.34-5.19-.58.77,2.46-.29,4.05-14.58-3.05,4.72,6.31-5.53,5.46-1.7,1.79,5.19,2.86,1.22,4.65-9-2.33-7.62,1.55-.87,4.1-.85,3.28-7.17.63-6.46,4.61a2.16,2.16,0,0,0-2.05-1.46c-3.92-1.42,2.25-2,.32-3.26-1-.12-2.49.65-3.16-.31,5-3.59-6.35-.29.94-4.3-5.75-.3,2.74-2.66-2.88-2.37-2.72-1.19,4.24-1.88-.35-2.61-2.92-1,2.21-1.74.2-2.42-.61.15-1.88-.09-1.43-.93,3.25-.82-.26-.81-.35-2,2.08-.6.08-.94-.13-1.76,2,1.08-.21-4.83-1.07-3.41-2.69,3-.16,4.58-3.16,5.23,2.16,2.44-.56,1.32-.55,2.9,1.66,1.77.5,1.65-1.13,1.66,2.07,3.55.2,2.46-1.63,3.67,3,2.68,2.38,3.16-1.1,4.15,6.38,6.85-5.28,1.52-.27,6a54.76,54.76,0,0,1-5.21,3c-5.88-1.82,5.87-3.27-2.9-4.93,5-6.49-2.77-.61.52-6.62-1.63,0-2.78.1-1.13-1.67,0-1.57-2.69-.47-.54-2.89-2.57-.64-2.07-.48-.87-2.55-1.67-.06-1.61-1.51-2.3-2.68-1.75-1.1-2.47,5.84-1.2,5.16-3.88,2.37,2.78,2.17-2.14,2.95-.76,1.13,3.25,1.24.57,2.36-4.6.73,2.37,1.42-.35,2.62-5-.63,2.12,2.54-2.68,2.17-6-1.33,1.92-3-3.55-4.14,3.51-4.39-1.9-.75.38-4.83-1.19,0-2,.08-.82-1.21,0-1.15-2-.36-.4-2.12-1.93-.73-.68-1.93-2.31-3.82-.68-.92-2.23,3.19-.78,2.49-.17.62-1.6.83-.1,1.28-.07.86-2.61.83-.25,1.44.33.61-.6.79-1,.67-1.46.51,2.29,1.06.15,1.77-3.35.54,1.73,1-.25,1.91-3.5-.29,1.48,1.61-2.1,1.73,4.39,3.22-9.59.52,0-5.62-3.38-2.44-6.84.32-3-6.7-3,0-5.09.19-2.06-3,.24-3.13-5.17-.19-1-5.29-6.9-1.54.83-1-5.78-9.55-3.11-2.4-1.33,3.69-3.06,4.34-2.07.52-.4,2.41,1.11,1.88-.41,1.55-4,2.06-.24,3.21-.17,2.13-6.55,2.07-.63,3.59.81,1.53-1.5,2-2.62,1.68-3.67,1.25,5.71,2.65.37,4.43-8.39,1.33,4.33,2.58-.63,4.77-10.29-.54,5.25,3.78-5.27,4.33.17,2.09,4.61,1,4.49,3.25-1.86,2.78-9.73-.67-2.77,4.6-.93,2.4-7.89-1.42-6.27,2.23,3,1,4.86,3,1.14,4.22-7.71,1.52-5.08,12.81-10,18.06-5.1.06-1.56-2.95.16-4.78-2.44-1.6-4.9-.21-2.17-4.88-2.17,0-3.7.14-1.5-2.21,0-2.09-3.58-.63-.72-3.85-3.42-.85-2.75-.63-1.15-3.39-2.23-.08-2.15-2-3.06-3.56-2.27-1.75-1,2.68-2.23,3.16-1.51.38-.29,1.76.81,1.36-.3,1.13-2.92,1.51-.18,2.34-.12,1.55-4.77,1.51-.45,2.62.59,1.12-1.1,1.43-1.92,1.22-2.66.91,4.16,1.93.28,3.22-6.11,1,3.15,1.89-.46,3.48-7.48-.39,3.8,2.75-3.84,3.15,7.29,4.68.73,1.27-.63,4.23,4.63,2.76-1.08,1.54-2.84,2.22,7.79-7.19-4.17-1,.78-8.7-2.34,0-4,.15-1.62-2.39.19-2.45-4-.15-.78-4.14-7-1.38,1.23-2.62-2-3.9-1.94.3-2.84-7.35-4.22-2.47.76,1.91-3.55,3.76.17,3.75-.31,1.22-3.14,1.62-.18,2.52-.14,1.67-5.14,1.62-.5,2.82.64,1.2-1.18,1.54-2,1.32-2.88,1,4.48,2.07.29,3.47-6.58,1.05,3.4,2-.5,3.74-8-.42,4.11,3-4.13,3.4,10.59,6.3-6,.57,1.35,6.15-1,1.38-3.16.27-4.52.45-.43,4.06,7.08,2.38-3.37,6.12-5.71.48,4.63-4.45-1.52-3.51-1.79-.23-.1-1-1.27-3.68-.94-2.47-5.06-.15.31-3.89-2.34-.85-2.73-.16-1.62-2.67-.67-.09-2.75.44-1.75-.92,2.27-.89.7-1.45-.86-1.41-.24-.12.29-3.81-1.6-2.22.94,3.52-3.33,1.82-1.26,3.67,2.87,1.65-2.79-.14,0,2.82-4.35-.19,1,1.83-.75,3-2.89-.32.44,1.37-.16,2.26-7.36-1.67,2.25,3.67-3.09,3.05-1,1,2.9,1.6.69,2.6-4.72-1.34-4.13,1-.49,2.29-.37,1.72-5.23.65-3.18,3-2.82,1-8,1.39-4.29-2.77-4.08-.65-3.25-8.88-5.66-.42-1.62.4-.31,1.87.86,1.45-.32,1.21-3.13,1.61-.19,2.5-.13,1.67-5.1,1.62-.49,2.8.64,1.2-1.17,1.53-2,1.31-2.86,1,4.45,2.07.29,3.45-6.53,1,3.38,2-.49,3.72-8-.42,4.07,2.94-4.1,3.37,10.51,6.26-5.95.57,1.33,6.12-.94,1.36-3.14.26-4.49.44-2.75,1.84,6,2.62.45,4.63-1.57-.22-3.88,1.83-2,3.35-1.09,1.23-5.42,2.3-1.85.15-3.17-1.23-1.57-.8-.8-2.52-4.17-.05,1.54-1.41-1.15-1.88-2-.81,1.57-.63-.8-2.15,2.22,0-.35-1.1.1-2.25-.83-2.92-1.36,1.66-2.52,1.48-1.87.82,3.06,1.7-1.21,2.34,1.85,2.09-.48,1.12-.47,2.48,1.42,1.51.43,1.41-1,1.42,1.66,2.64.09,2.26-1.4,3.15,2.57,2.29,2,2.7-.94,3.56,6.39,5.32-13.47,7.73-3.13-.78-2.84-1.86-5.71-.24-2.53-5.68-2.53,0-4.3.16-1.74-2.58.2-2.64-4.38-.16-.85-4.48-5.53-1,.39-1.54-4.9-8.09-2.63-2-1.13,3.12-2.59,3.68-1.75.44-.34,2,.94,1.59-.34,1.31-3.4,1.75-.2,2.72-.15,1.8-5.56,1.75-.54,3,.69,1.3-1.27,1.67-2.22,1.43-3.11,1.06,4.84,2.24.32,3.75-7.11,1.13,3.67,2.19-.54,4.05-8.7-.46,4.44,3.19-4.46,3.66.14,1.77,3.9.84,3.8,2.76-11.08,2.45,4.62,4.82-7.23,4.38-3,2,6.48,3,.54,5-19.56,16.4-40,40.41-67.65,39.92C204.4,521.41,763.06,501.47,761.44,506.06ZM690.05,348.19c1.82-1.17,4.91,2.33.87,1.59C690.36,349.44,689.15,348.86,690.05,348.19Zm-11.51-.42c1.22-.95.69.18-.18.42C677.93,348.27,678.29,348,678.54,347.77Zm-54.73,30.29a4.74,4.74,0,0,0,1.56.73C624.69,378.93,623.4,378,623.81,378.06Z"
    fill="url(#grad9)"
  />
</svg>