<svg
  xmlns="http://www.w3.org/2000/svg"
  xmlns:xlink="http://www.w3.org/1999/xlink"
  viewBox="0 0 750 500"
  preserveAspectRatio="xMidYMax slice"
>
  <defs>
    <linearGradient
      id="grad2"
      x1="242.5"
      y1="356.25"
      x2="750"
      y2="356.25"
      gradientUnits="userSpaceOnUse"
    >
      <stop offset="0" stop-color="#fbbd93" />
      <stop offset="0.98" stop-color="#c46976" />
    </linearGradient>
  </defs>
  <path
    id="h1-8"
    d="M750,500V212.49a19.09,19.09,0,0,0-11.54,8.17c-2.21,3.35-4.39,7.9-7.92,7.69-1.44-.08-2.78-1-4.23-1.08-5.12-.2-7.87,10.11-12.84,8.66a2.7,2.7,0,0,0-2.57-3.34c-1.49.1-2.72,1.38-3.77,2.67a46.94,46.94,0,0,0-7.7,14c-1.76-6-8.53-7.93-13.43-5.51s-8.31,7.76-11.48,12.87l-17.31,27.92c-4.54,7.33-11.47,15.57-18.52,12.15-3.38-1.64-5.76-5.76-9.32-6.73s-7.55,1.64-11.18.48c-5.45-1.76-8.37-11.36-14-10.4-3.13.54-5.93,4.55-8.87,3.14-1.52-.73-2.44-2.76-4-3.36s-3.32.52-5,1.13c-7.4,2.73-14.16-5.41-21.27-9.08-12.35-6.38-26.85,1.31-36.59,12.45-3.1,3.54-6,7.5-9.78,9.89-3.22,2-6.88,2.8-10.48,3.54L480,303.58c-15,3.07-30.14,6.2-44.07,13.54-6.63,3.48-13,7.91-19.94,10.16-10.83,3.5-22.26,1.5-33.47,1.18-9.18-.27-102.2,122.09-140,171.54Z"
    fill="url(#grad2)"
  />
</svg>