<svg
  xmlns="http://www.w3.org/2000/svg"
  xmlns:xlink="http://www.w3.org/1999/xlink"
  viewBox="0 0 750 500"
  preserveAspectRatio="xMidYMax slice"
>
<defs>
<linearGradient
      id="grad7"
      x1="434.38"
      y1="391.96"
      x2="474.27"
      y2="516.33"
      gradientUnits="userSpaceOnUse"
    >
      <stop offset="0.3" stop-color="#1c1b38" />
      <stop offset="0.38" stop-color="#201e3e" />
      <stop offset="0.9" stop-color="#383263" />
    </linearGradient>
</defs>

      
      <path
        id="h1-3"
        d="M599.72,500V408.89c-33.51-10.65-62.1-50.46-98.56-20.79a25.07,25.07,0,0,1-1.27-7.47c-1.85,2.68-1.48,6.14-1.8,9.12-1.25.67-2.51,1.33-3.77,2a4.34,4.34,0,0,0-2.9-2.48c-.47,1.55-.86,3.14-1.39,4.67l-.86.44c-1.9-3.54-1.9-8.23-3.08-12.14-1.52,6.24-.48,23.06-7.3,8.68a32,32,0,0,0-1.39,4.78c-3.06-6.27-5.18,1.34-7.2-8.14a62.77,62.77,0,0,0-1.85,6.68c-7.05-22.33-3.46,2-6.72,10.2a9,9,0,0,1-1.26-2.6q-1.31,2.31-2.6,4.62-1-5.08-2-10.15c-1.91,3.59-.5,8.47-1.62,12.42-2.47.74-5,1.44-7.45,2.06-.1-1-.18-2-.24-3a12.6,12.6,0,0,0-1.56,3.41l-1.69.38q-.46-6.3-.94-12.6a54.83,54.83,0,0,0-.53,12.93c-.82.17-1.64.31-2.45.47-1.42-5.4.55-11.39-1.18-16.87l-.54,8.7c-3.64-2.23-1.56-10.31-2.79-14.41l-.69,8.75c-1.43-6.09.32-14.52-3.43-19.51l-.21,20a53.6,53.6,0,0,0-2.18-5.75,47.85,47.85,0,0,0-1.62,11l-1.19-.57a51.53,51.53,0,0,1-2.64,9.14q-1.74-7.1-3.49-14.18A53.84,53.84,0,0,0,418,409.5c-3.5-4.54-3.22,3.32-3.7,5.54-1.35.13-2.69.28-4,.47a20.24,20.24,0,0,0-.39-7.28l-1,3.07a55.47,55.47,0,0,0-2.42-11q-.74,7.29-1.49,14.57c-1.51-1.13-3.44,1-3.55,2.68a46,46,0,0,0-6.84,3,6.2,6.2,0,0,0-1-2.39c-.12,1-.24,2.09-.37,3.13C358.7,452,331.33,448.79,309.12,500Z"
        fill="url(#grad7)"
      />
</svg>