<svg
  xmlns="http://www.w3.org/2000/svg"
  xmlns:xlink="http://www.w3.org/1999/xlink"
  viewBox="0 0 750 500"
  preserveAspectRatio="xMidYMax slice"
>
<defs>
<linearGradient
      id="lg4"
      x1="641.98"
      y1="274.9"
      x2="638.02"
      y2="334.36"
      gradientUnits="userSpaceOnUse"
    >
      <stop offset="0" stop-color="#2c2c50" />
      <stop offset="1" stop-color="#434375" />
    </linearGradient>
    <linearGradient
      id="lg5"
      x1="172.37"
      y1="286.02"
      x2="171.33"
      y2="343.08"
      xlink:href="#lg4"
    />
    <linearGradient
      id="lg6"
      x1="505.71"
      y1="261.55"
      x2="504.61"
      y2="322.08"
      xlink:href="#lg4"
    />
    <linearGradient
      id="lg7"
      x1="301.32"
      y1="260.99"
      x2="295.66"
      y2="345.9"
      xlink:href="#lg4"
    />
    <linearGradient
      id="lg8"
      x1="375.59"
      y1="381.01"
      x2="373.3"
      y2="507.08"
      xlink:href="#lg4"
    />
</defs>
  <g id="hills2">
    <path
      id="h2-6"
      d="M524.28,418.82c6.36,0,80.19-14.81,103.12-36.53S655.28,345.8,679,359.64s33.69,18.54,46.63,18.82a158.62,158.62,0,0,1,23.88,2.4V447L632,458.92Z"
      fill="url(#lg4)"
    />
    <path
      id="h2-5"
      d="M294.06,498.2l49.09-66.93s-64-6.48-93.59-31.29-63.47-49.78-87.15-41.46-81.7,4.44-98.73,15S.1,387.08.1,387.08l.37,60.18L209.75,498.2Z"
      fill="url(#lg5)"
    />
    <path
      id="h2-4"
      d="M264.94,449.2s61-16.39,94.07-37.28,61.37-37.2,73.53-36.12,69.9-40,80.18-42.62,13.55-.37,29,1.85,22-5.27,34.52,6.39,43.29,34.86,75.51,48.52c25.88,11,91.48,28.88,91.48,28.88l-31.58,67.73-326.93,9.27Z"
      fill="url(#lg6)"
    />
    <path
      id="h2-3"
      d="M.47,469.58V420s113.73-2.74,171.72-26.68,101.69-72.29,134.53-52,31.37-18.48,61.9,13.28S446.68,393.48,478,406.86s113.08,26.06,113.08,26.06l-59.28,53.4L272.55,485Z"
      fill="url(#lg7)"
    />
    <path
      id="h2-2"
      d="M749.55,500V398.27l-38.48-6.67s-29.86,12.13-63,11.53-39.61-7.26-70.33-13.41-72.58,21.4-105.61,21.4-75.5-17.78-110.64-17.78c-24.85,0-90.08,20.12-110.82,18.48s-51.11-20.42-82-6.26S.47,409.26.47,409.26V500Z"
      fill="url(#lg8)"
    />
  </g>
</svg>