<svg
  xmlns="http://www.w3.org/2000/svg"
  xmlns:xlink="http://www.w3.org/1999/xlink"
  viewBox="0 0 750 500"
  preserveAspectRatio="xMidYMax slice"
>

<defs>
<linearGradient
      id="grad5"
      x1="1"
      y1="413.12"
      x2="340.58"
      y2="413.12"
      gradientUnits="userSpaceOnUse"
    >
      <stop offset="0" stop-color="#433d6c" />
      <stop offset="1" stop-color="#392e54" />
    </linearGradient>
    
</defs>

      <path
        id="h1-5"
        d="M300.32,425.63c-7.78-5.38-17.22-7.93-25.57-12.43-14.59-7.87-25.69-21.55-39.79-29.71l-.42-3.55a7,7,0,0,0-1.09,2.71,51.13,51.13,0,0,0-7.74-3.43,7.19,7.19,0,0,0-.31-1.19c-.62-1.64-2.43-2.82-3.72-1.84q-.84-8.26-1.69-16.51a62.62,62.62,0,0,0-2.73,12.43l-1.17-3.48a19.73,19.73,0,0,0-.56,6.46c.05.58.12,1.19.13,1.79-1.51-.21-3-.39-4.55-.53q-.42-3-.82-6a2.73,2.73,0,0,0-.59-1.63c-.88-.85-2.11.31-2.8,1.37a60,60,0,0,0-1.47-12.2q-2,8-4,16.06a58.3,58.3,0,0,1-3-10.35l-1.34.65a53.76,53.76,0,0,0-1.85-12.48,59.91,59.91,0,0,0-2.46,6.52l-.24-22.71c-1.52.77-1.93,3-2.12,5l-1.77,17.15-.78-9.93-1.2,13.51c-.13,1.39-.82,3.26-2,2.83-.2-3.29-.41-6.58-.61-9.86a44.38,44.38,0,0,0-.86,12.34,18.5,18.5,0,0,1-.07,5.66,5.13,5.13,0,0,1-.41,1.11c-.92-.17-1.85-.33-2.77-.53a62.45,62.45,0,0,0-.61-14.65q-.52,7.14-1.06,14.28l-1.91-.44a14.36,14.36,0,0,0-1.77-3.85c-.07,1.13-.17,2.25-.28,3.38-2.83-.7-5.64-1.49-8.44-2.33a46.58,46.58,0,0,1-.7-7.73c0-2.21.08-4.65-1.13-6.35q-1.16,5.75-2.32,11.5l-2.94-5.22a10.84,10.84,0,0,1-1.43,2.94,70.76,70.76,0,0,1-2.06-19.48,5.51,5.51,0,0,0-.28-2.47c-.34-.74-1.22-1.21-1.81-.72a2.32,2.32,0,0,0-.58,1.35c-.62,3.45-.58,7.51-2.89,9.76a71.71,71.71,0,0,0-2.09-7.57c-2.17.41-.33,6-2.51,6.33a2.8,2.8,0,0,1-1.22-.29c-1.88-.61-4.05.95-4.43,3.18A36.92,36.92,0,0,0,138,349c-1,1-1.37,2.63-1.93,4.05s-1.61,2.84-2.94,2.73c-1.18-.09-2-1.43-2.29-2.79a16.05,16.05,0,0,1,.11-4.15,24,24,0,0,0-1.22-9.68q-1.32,6.12-2.65,12.23a2.46,2.46,0,0,1-.84,1.52l-1-.49a3.24,3.24,0,0,1-.19-.52q-.7-2.39-1.39-4.77a4.89,4.89,0,0,0-3.28,2.8q-2.15-1.11-4.28-2.25c-.4-1.45-.1-3.37-.22-5a14.5,14.5,0,0,0-1.82-5.32,28.44,28.44,0,0,1-1.43,8.47c-11.66-6.3-23.87-12.92-37.13-12.57C47.46,334,28.3,364.93,1,369.38V493H340.58C329.05,468.15,305.9,429.49,300.32,425.63Z"
        fill="url(#grad5)"
      />
</svg>