<svg
  xmlns="http://www.w3.org/2000/svg"
  xmlns:xlink="http://www.w3.org/1999/xlink"
  viewBox="0 0 750 500"
  preserveAspectRatio="xMidYMax slice"
>
<defs>
  <linearGradient
    id="grad8"
    x1="259.18"
    y1="335.54"
    x2="213.65"
    y2="500.39"
    gradientUnits="userSpaceOnUse"
  >
    <stop offset="0" stop-color="#0e0a1a" />
    <stop offset="0.3" stop-color="#100d1f" />
    <stop offset="0.64" stop-color="#17142c" />
    <stop offset="0.95" stop-color="#201f3f" />
  </linearGradient>
  
</defs>
<g>
  <path
    id="h1-2"
    d="M458.76,482c5.16-5-11.74.58,1.39-8.14,3.06-4.4-10.55.51-5.45-5.72,1.87-2.26-3.86-2.07-1.53-4.31,2.18-3.68-5.58-.57-5.2-4.1.27-2.94,5.63-1.63,5.89-4.53-1.27-1.36-8.66-.73-3.81-4.29.78-.64.63-1.93-.49-1.76-11.28.92,7.41-5.34-5.09-5-.07-7.42-4-8.29-4,.43-2.15-.06-6.11.48-2.34,2.77,6.88,4.11-6.21-.91-.09,6.26-9.68-.45,2.22,4.05-1.66,6.62-6.42-.72,1,3.05-.35,5-2.22-.11-9.69-2.36-6.67,2.14,1.41,1.08,5.44,1.67,4.16,4.19-14,.35-1.69-3.29-6.22-5.16-9.47.18,3.15-4.84,1.85-7.73-9.62.27-4.67-.91-7.3-8.13,2.83-4.76-13.74.93.69-8.63-5.13-2.29-6.41.32-3.61-5.93-11.85.81,5.66-5.38-5.78-5.15.15-7.09-4.22-7.89-4,.44-2.15-.07-6.11.47-2.34,2.76,6.88,4.11-6.2-.91-.09,6.27-9.68-.46,2.23,4-1.66,6.61-6.41-.72,1,3.06-.35,5-14.1-1.58-4.48,1.08-2.41,6.18-.74,2-7.34-1-3.91,2.67,6.41,3.38-1.72,4.42-4.8,2.38,1.12-4.51-12.53.43-.71-6.68-12.2-.93,6.29-5-5.76-4.73-5.54-2.52,8.3-3.7-.69-5.23-5.84-1.94,4.42-3.47.4-4.84-1.22.31-3.76-.16-2.87-1.84,6.91-2.07-.72-1.42-.68-3.93,4.92-1.72-.21-1.63-.26-3.51,4.44,1.35-1.94-14-3.67-3.17-.8,2.29-5.49.91-1.55,3.84,2.52,3.94-2.5,1.25-3.25,3,4.7,6-1.57,2.19-1.09,5.78,3.53,4,1.11,3.15-2.25,3.33,2.61,4,2.08,8.22-3.68,5.72-1.62-1.67,4.32-3.9.4-4.44-10.78.43,6.22-6.38.89-8-7.78,1.15-3.82-.52-6.33-7.88,2.17-3.68-5.59-.58-5.2-4.1.31-2.7,4.62-1.82,5.73-3.86.94-2.65-9.36-.72-3.66-5,2.7-3.64-6.79.55-3.65-3.67,5-2,1.56-3.17-1.92-3.12-.54-.27.63-8.46-3.55-4.92,1.75,8.9-7.66,3.56-2.78,8.13,6.88,4.11-6.21-.92-.09,6.26-9.68-.45,2.22,4-1.66,6.62-6.42-.73,1,3-.35,5-14.11-1.58-4.48,1.08-2.41,6.19-.82,1.56-3.05.34-4.45.57-1.81,1.88,8.35,6.13-.87,5.54,7.65-5.69-10,.57-.46-8.75-5.45-1.75-6.32-1.71-1.64-6.16-2.69-2.14-5.64.68-2.42-5.44-2.48-.13-4.29.5-1.67-2.47.2-2.56-4.21-.12-.81-4.3-4-.95-2.86-.66-1.28-3.78-4.36-.68-3.26-9.29-5.9-.45-1.69.42-.32,2,.9,1.53-.32,1.21-3.28,1.72-.2,2.6-.13,1.72-5.33,1.7-.51,2.92.67,1.25-1.22,1.6-2.13,1.37-3,1,4.64,2.15.3,3.6-7,1.29,3.64,2-.51,3.87-9-.18,4.78,2.82-4.28,3.52,11,6.71-6.38.31,1.4,6.37-.76,2-6.41-1.15-5.09,1.82,2.32.84,4.11,2.25.87,3.47-4.11,1.08-2,1.74-3.25-.62-6.34.25,3.67-3.77.53-4.71-5.43,1-1.73-1.91-3.33-3.35a.71.71,0,0,1-.4-1.29c.24-2.77-7.7-.85.31-4.69.55-1.57-5.52-.43-2.15-2.93,1.59-2.15-4,.32-2.16-2.16,3-1.18.92-1.87-1.13-1.84-.32-.16.37-5-2.09-2.9,1,5.58-4.69,1.75-1.64,4.79,3.93,2.34-3.67-.41-.05,3.69-5.7-.27,1.3,2.39-1,3.9-3.78-.43.56,1.8-.21,2.95-7.14-1-3.36.55-1.4,3.6-20.82-5.42,15.55-8.49-9.78-14.34-1-4.08,4.92-5,6.1-8.35-2.57-4.75-11.79,3.63-4.62-10.39-4.74-.25-8.2,1-3.19-4.72,1-5.25-8.31.83-1.55-8.2-.43-2.27-3.52,0-4.8-.76-3-2.12,3.41-5,2.35-6.46-8.43-.81-5.66-18.62-11.26-.86-3.23.81-.61,3.74,1.71,2.91-.06,2.62-7.33,2.59-.37,5,1.16,2.72-5.59,1.51-4.85,4.07.49,1.35,2.93.41,3.88,1.5,1.26,2.37-2.34,3.06-4.07,2.61-5.69,1.95,8.86,4.1.58,6.87-12.17,1.9,6.57,4.08-1,7.41-17.71-1,8.72,6.71-6.76,5.84-6.41-2.11-7.5-2-1.94-7.31-3.15-2.61-6.72,1.08-2.86-6.42-2.94-.15-5.08.59-2-2.92.43-3.17-5.08.26-1-5.07-4.84-1.29-3.61-.46-1.52-4.47-2.94-.11-2.83-2.64-4-4.7-3-2.3-1.29,3.54-2.94,4.17-2,.5-.38,2.31,1.06,1.8,0,1.62-4.53,1.6-.23,3.08,0,2.09-6.51,1.85-.6,3.45.78,1.46-1.45,1.89-2.52,1.61-3.52,1.21,5.48,2.54.36,4.25-7.81,1.33,4.22,2.36-.61,4.58-10.59-.21,5.65,3.33-5,4.16,10.45,6.46-.72,1.82-.83,5.58,8.72,4.58-6.19.52-3.48,4.14,7.92,3.4-3.1,4.87-2.53.79-6.34-.08,3.86-3.57.78-4.68-4.16,1-2.76-2.51-3.48-4.83.07-2.93-7.44-.71.56-4.66.63-1.54-5.48-.72-2-3,1.7-2.06-4,.12-2-2.27,3-1,1-1.81-1-1.89-.31-.18.64-5-1.93-3,.74,5.62-4.78,1.51-1.89,4.7,3.79,2.53-3.64-.6-.26,3.68-5.67-.56,1.18,2.45-1.18,3.84-3.75-.62.47,1.83-.36,2.94-10.47-2.77,3.15,4.78-4.25,3.77,4.88,5.83-10.67,1.08-1.94-3.71-2.69-2.14-5.64.67-2.41-5.44-2.49-.13-4.3.5-1.68-2.47.2-2.56-4.21-.12-.8-4.3-4.11-.92-2.8-.73-1.29-3.78-2.48-.09-2.39-2.23-3.41-4-2.53-1.94-1.09,3-2.49,3.53-1.69.43-.32,2,.9,1.53-4.38,3.14,2.56,2-1.38,3.72-4.45.74,4.45,2.51-.9,3.21.38-2.33-7.66.62-4.27-3.65,1.35-1.65-2.69-1.46-1.17-3.09,1.84-2.7-4-.51-3.7-3.06.21-2.14,4.1-1.16,4.3-3.27-.91-1-6.31-.58-2.76-3.14,2-2.64-5,.37-2.65-2.68.73-.47,2.22-.65,1.93-1.71-6.38.22-1.28-6.35-5.87-4.17-1.08.91.93,3.06-.35,3.9-1.56-.05-4.45.32-1.71,2,4.85,2.92-4.53-.54-.09,4.56-7-.37,1.6,3-1.23,4.81-6.21-.48,5.52,5.54-3.69,3.19,1.39-.38,1.75-2.57-.11-2.32-10.78.43,6.22-6.38.89-8-7.78,1.12-3.8-.39-6.34-7.87,2.84-4.76-13.74.93.7-8.64-5.14-2.28-6.42.33-3.61-5.92-1.49-.19-6.09,1-3.86-2,5-2,1.56-3.17-1.92-3.12-.54-.27.63-8.46-3.55-4.92,1.74,8.81-7.58,3.61-2.78,8.12,6.88,4.11-6.21-.91-.09,6.27-9.68-.46,2.22,4-1.66,6.61-6.42-.72,1,3.05-.35,5-14.11-1.57-4.48,1.09-2.41,6.19-7.27,2.1-5-.36-1.57,5.11-2.6,3.16-9.48-3.16-9.41,2.41-10.51-4.19,11.08-4.29-4.83-8.59,9.59-12.9-5.12.44.92-11.59-2.94-.16-5.08.59-2-2.92.43-3.17-5.08.26-1-5.08-.26-1.4-2.17,0-3-.47,1.94-7.42.17-1-2.57-8.7-3-2.29-1.29,3.55-2.94,4.18-2,.49-.38,2.31,1.06,1.79,0,1.63-4.54,1.6-.23,3.08,0,2.11-6.51,1.85-.6,3.45.83,2-2,1.54-3.16,1.72.2,3.2,6.63,2.1-1.44,4.91-2.72.08-2.75-1-1.54-3.2-1.58,0-2.71.1-1.09-1.62.13-1.67-2.76-.08-.53-2.81-2.61-.69-2-.31-.84-2.48-1.63-.06-1.57-1.46-2.24-2.6-.85-1.31-2.94,4.33-1,3.31-.2.79-2.14,1.12-.12,1.7-.1,1.13-3.49,1.12-.34,1.91.44.82-.8,1-1.39.9-2,.66,3,1.4.2,2.35-4.46.71,2.3,1.38-.34,2.54-5.46-.29,2.79,2-2.8,2.3,5.29,3.29.61.84-.46,3.09,3.17,1.72-.49,1.56-2.07,1.39,5.62-3.91-10.06-2.36-5.48-7.07,10.21-6.19-11.14-3.29,1.25-11.79-3.09-3.14-7.74,1.64-3.2-7.24-3.3-.18-5.7.66-2.22-3.28.48-3.57-5.71.29-1.07-5.7-9.55-1.62,1.9-4.21-2.79-5.36-2.68.41-3.9-10.11-5.79-3.4,1,2.63-4.89,5.16.23,5.16,0,1.82-5.09,1.8-.25,3.46-.06,2.36-7.33,2.08-.68,3.88.88,1.65-1.62,2.12-2.83,1.81-4,1.36,6.16,2.85.4,4.78-8.86,1.48,4.77,2.67-.68,5.15-11.9-.24,6.35,3.74-5.68,4.66.18,2.26,5,1.07,4.84,3.51-1.91,2.93-10.39-.72-3,5-1,2.59-8.59-1.54-6.69,2.46,3.11,1.07,5.31,3,1.09,4.56a5.5,5.5,0,0,0-2.92,1c-21-4.74,14.24-9.36-10.31-14.48-1-4.08,4.92-5.05,6.1-8.35-2.56-4.75-11.79,3.63-4.61-10.39-4.75-.25-8.21,1-3.2-4.71,1-5.26-8.3.82-1.54-8.21-.43-2.27-3.52,0-4.81-.76-3-2.12,3.41-5,2.36-6.46-4.75-.17-4.58-4.27-6.52-7.6-4.83-3.69-2.08,5.72-4.75,6.74-3.22.81-.61,3.74,1.72,2.91-.06,2.62-7.34,2.59-.37,5,1.15,2.72-5.6,1.51-4.86,4.07,4.29.89,5.93,4.66-.19,4.11-5.69,1.95,8.86,4.1.58,6.87-12.17,1.9,6.58,4.08-1,7.4-17.62-.13,9.56,5.15-8.17,6.72.26,3.24,7.15,1.53,7,5-3.2,4.42-14.5-1.48-4.37,7.25-16.76-2.77,6.36-6.08-8.62-9.37,9.6-12.91-5.11.43.92-11.6-2.93-.16-5.07.59-2-2.92.42-3.17-5.09.26-1-5.07-.27-1.41-2.18,0-3-.47,1.94-7.44.21-1-2.57-8.7-3-2.3-1.29,3.54-2.93,4.17-2,.49-.39,2.31,1,1.8,0,1.62-4.54,1.59-.22,3.08-.06,2.1-6.51,1.84-.61,3.45.84,2-2,1.54-3.15,1.71-.41,2.91,7,2.16-1.2,4.73,3.83-3-3.3-3-.93-5.63,3.08-4.21-12.45-.82-2.84-6.88,1.45-.39,3.53-.82,3.6-2.54-.71-1.87-6.8.32-5.71-3.29,3.43-2.58,1.75-3.87-1.85-2.94C-.75,344.2.16,465.91.12,500H467.87C473.79,495.49,471.59,489.61,458.76,482ZM10.88,370c-1.36.11-3.05-.89-3-2.25C8.48,368.61,11.55,368.23,10.88,370Zm107.47,18.35c.12,0,.22.1.33.14C121.24,390.56,115.34,390.33,118.35,388.34Zm-1.9-2.67c-.32-1.24,1.32-1.65,1.88-2.5C124.28,385.1,120,387.49,116.45,385.67Zm77.12,31.76c.12-.73,1.62-2.22,2.09-1.22S194.42,417.74,193.57,417.43Zm-.49-2.38c-3.46-.59-.05-3.14,1.48-3.86C200.14,413,192.92,413.23,193.08,415.05Zm65.81,17.06a2.55,2.55,0,0,1,.75.43C259.28,432.55,258.94,432.53,258.89,432.11Zm2.37-4c-1.58-1-3.82-1-5.46-1.77C251,418.85,271.7,425.92,261.26,428.12ZM391,465a.7.7,0,0,1,.41-.85C391.06,464.53,391.49,466,391,465Zm39.5,11.52H432C431.85,477.15,431,476.53,430.52,476.55Z"
    fill="url(#grad8)"
  />
</g>
</svg>