<svg
  xmlns="http://www.w3.org/2000/svg"
  xmlns:xlink="http://www.w3.org/1999/xlink"
  viewBox="0 0 750 500"
  preserveAspectRatio="xMidYMax slice"
>
<defs>
 <linearGradient
      id="grad4"
      x1="216.56"
      y1="227.64"
      x2="191.14"
      y2="600.82"
      gradientUnits="userSpaceOnUse"
    >
      <stop offset="0" stop-color="#70375a" />
      <stop offset="0.96" stop-color="#8a6e95" />
    </linearGradient>
    
</defs>
      <path
        id="h1-6"
        d="M0,410.67V493H412.06c-35.38-101.16-98.42-78-131.23-117.2-32.36-10.29-64.31-17.76-94-31.31a5.83,5.83,0,0,1-.41-1,7.21,7.21,0,0,1-3.62.65c-.21-1.41-.42-2.83-.64-4.24-2.79.75-.89,3.32-3.9,3.95l-1.37-1.1a9.26,9.26,0,0,0-2.34,1l.12,0-.14,0,0,0-.92-.27.07.15a23.67,23.67,0,0,1-6.55-2.05l6.48,1.9c-1.55-3.22,1.78-7.31-3.91-7.15-.21-1.94-.43-3.88-.64-5.82a11.45,11.45,0,0,0-3.47,3.65l-.93-1.37c-1.28,1.74-1.15,5-4.08,2.84l-1,.27c-.33-2.48-.76-5.65-4-4.32a8.17,8.17,0,0,0-.7-4.34l-4.11,3.91c-.6-.27-1.21-.5-1.82-.74a12.42,12.42,0,0,1-1.26-2.53l-1.37,0a7.91,7.91,0,0,0-1-4.51,18.65,18.65,0,0,0-2.83,1.73l1.17-7.63c-3.59.35-3.37,4.37-5.21,6.67-.05-1.15-.09-2.3-.14-3.45-1.34,1.72-1.11,5.49-4.13,4.87v-3.4c-2.61,2.44-.21,7.7-5.37,5.82a7.46,7.46,0,0,0,.48-5.37l-2,4.83c-6.31-4.21-9.12-12.77-16.39-16.25-.1-.77-.21-1.53-.31-2.3a5.08,5.08,0,0,0-.88,1.59,35.35,35.35,0,0,0-8.44-3.48c-.71-1.26-2.37-2.1-3.57-1.32q-.85-7.06-1.7-14.12a46.56,46.56,0,0,0-2.74,10.63l-1.17-3a15.46,15.46,0,0,0-.45,6.63c-1.5,0-3,.08-4.53.08-.53-2.47-.42-9.91-4.23-5.49A44.26,44.26,0,0,0,81.32,290l-4,13.74a44,44,0,0,1-3-8.85l-1.35.55a39.63,39.63,0,0,0-1.85-10.68,47.8,47.8,0,0,0-2.47,5.58l-.24-19.43c-4.18,4.6-2.3,13-3.9,18.92-.26-2.83-.51-5.66-.77-8.49-.51,4.12-.73,8.28-1.38,12.38-.64-.11-1.28-.19-1.93-.26L60,286.83a32.55,32.55,0,0,0-.91,6.45c-1.11-.09-2.24-.15-3.37-.19-.12-1-.26-1.94-.45-2.9-.08,1-.16,1.91-.25,2.87-19.76-2.69-34.56-16.84-55-21.54Z"
        fill="url(#grad4)"
      />
</svg>