<svg
  xmlns="http://www.w3.org/2000/svg"
  xmlns:xlink="http://www.w3.org/1999/xlink"
  viewBox="0 0 750 500"
  preserveAspectRatio="xMidYMax slice"
>
<defs>
<linearGradient
      id="grad1"
      x1="-154.32"
      y1="263.27"
      x2="-154.32"
      y2="374.3"
      gradientTransform="matrix(-1, 0, 0, 1.36, 231.36, -100.14)"
      gradientUnits="userSpaceOnUse"
    >
      <stop offset="0.07" stop-color="#9c536b" />
      <stop offset="0.98" stop-color="#d98981" />
    </linearGradient>
    
</defs>
<g id="hills1">
      <path
        id="h1-9"
        d="M696.36,409H75V335.47c10.19-.52,20.5-.36,30.05-3.65,8.11-2.8,15.84-8.49,23.78-11.33s18.18,1.84,25.36-4.85C165,305.56,172,289.79,186.71,292.8c6.21,1.27,12.09,3.66,18.43.84,6-2.65,9.73-9.46,14.69-13.54,2.87-2.35,6.42-3.2,9.35-5.49,1.65-1.28,5.45-6.37,7-6.92,7.94-2.93,10.34,2.69,18.56-3.47,6.45-4.84,8.52-8.21,15.45-5,5,2.35,11.89,10.09,16,15.37C294.9,286,302,297.77,312.71,307.53c11.62,10.63,21.59,9.37,34.67,5.83,16.12-4.37,18.32,9.06,32.24,15.28,7.45,3.32,13.23-1.7,19.6-2.08,3.64-.22,5.85,2.12,9.37,1.82,3.12-.27,4.08-4.44,8.33-3,7.32,12.31,15.75,20,28.21,20.59,14.32.7,27.12.76,39.73-4.94A145.24,145.24,0,0,0,502.11,332c8.71-5.36,11.22-2.82,19.35,1.5,11.66,6.21,25.31,1.08,36.56,9.18,5.53,4,8.36,12.23,14.64,14.79,4.86,2,15.59.38,20.4-1.18,13.47-4.38,21.52-16.59,36.56-17.33,13.57-.67,25.19-4.17,39.11-2.31,10.91,1.46,18.72-.1,27.63-2.61Z"
        fill="url(#grad1)"
      />
    </g>
</svg>