<svg
  xmlns="http://www.w3.org/2000/svg"
  xmlns:xlink="http://www.w3.org/1999/xlink"
  viewBox="0 0 750 500"
  preserveAspectRatio="xMidYMax slice"
>
<defs>
<linearGradient
      id="grad6"
      x1="454.13"
      y1="295.96"
      x2="454.13"
      y2="498.93"
      gradientUnits="userSpaceOnUse"
    >
      <stop offset="0" stop-color="#2b2850" />
      <stop offset="0.99" stop-color="#563a6a" />
    </linearGradient>
    
</defs>

      <path
        id="h1-4"
        d="M751,500V432.05c-32.59-68.73-53.56-58.59-101.56-92.59-.14-1-.27-2-.41-3a5.36,5.36,0,0,0-1.09,2.31,56.55,56.55,0,0,0-7.75-2.93c-.19-1.82-2.36-3.63-4-2.59q-.85-7-1.7-14.08a46.81,46.81,0,0,0-2.73,10.6l-1.16-3a16.62,16.62,0,0,0-.43,7.05c-1.51-.19-3-.33-4.56-.46-.51-2.46-.45-9.74-4.2-5.36a44.16,44.16,0,0,0-1.47-10.41q-2,6.86-3.95,13.71a44,44,0,0,1-3-8.83l-1.35.55a39.72,39.72,0,0,0-1.84-10.65,45.84,45.84,0,0,0-2.46,5.56l-.25-19.38c-4.16,4.58-2.3,13-3.88,18.87l-.78-8.47c-1.32,4,.82,12.1-3.16,13.94-.21-2.81-.41-5.61-.62-8.41-2,5.29.27,11.14-1.33,16.31-.93-.15-1.85-.29-2.77-.45a45.62,45.62,0,0,0-.61-12.51q-.54,6.09-1.06,12.18l-1.91-.37a11.76,11.76,0,0,0-1.77-3.29c-.07,1-.17,1.93-.28,2.89-2.83-.6-5.65-1.27-8.44-2-1.27-3.84.32-8.58-1.83-12l-2.33,9.81-2.94-4.46a8.34,8.34,0,0,1-1.43,2.51c-3.72-8.44.44-31.59-7.61-9.86a56,56,0,0,0-2.1-6.46c-2.55,9.5-4.65,1.59-8.16,7.87A27,27,0,0,0,552.5,310c-7.5,13.85-6.56-1.79-8.28-8.39-1.32,3.76-1.37,8.43-3.48,11.73l-1-.42c-.6-1.47-1-3-1.58-4.51a4.75,4.75,0,0,0-3.27,2.39l-4.28-1.92c-.37-2.95,0-6.25-2-8.82a21.06,21.06,0,0,1-1.44,7.23C477.88,273,440.32,336.09,390,328l-.24-2.24a17.27,17.27,0,0,0-.38,2.34c-.65.1-1.29.21-1.93.33a12.8,12.8,0,0,0-.56-4.29c-.12,1.36-.25,2.72-.37,4.08-2.29-.67-1.19-4.81-1.93-6.76-.15,1.37-.31,2.74-.47,4.1-.93-2.87.08-7.13-2.36-9.15l-.15,9.4a22.45,22.45,0,0,0-1.5-2.7,16.09,16.09,0,0,0-1.12,5.17l-.82-.27a18.83,18.83,0,0,1-1.62,3.93l-.28.12q-1.16-3.21-2.32-6.41a17.14,17.14,0,0,0-.89,5.05c-2.66-2.43-2.31,2.71-2.89,4.27l-.58-.55c-2.76,1.71-1.29-3-2.12-4.32l-.71,1.44a18.49,18.49,0,0,0-1.66-5.14c-.34,2.28-.68,4.55-1,6.83-4.21-.74-1.58,5.19-3,7.44l-.64.42a6.89,6.89,0,0,0-1.31-1.72l-.93,1c-1.73-1.42-.31-4.09-1.9-5.61l-.84,4.95a3.65,3.65,0,0,1-2.09-1.59c-.19.78-1.24,5.51-2.26,9.24l-8.66,5.85a65.51,65.51,0,0,1-1.3-8.18c0,2.68-2,7.92-2.88,11l-3.06,2.07c-1-3.79-2.06-7.14-2.86-7.28-.47,1.36-1.07,8.89-1.53,10.25l-1.7,1.15c-.87-4.35-1.81-9.29-2.35-11.4-.83,2-.58,8.93-.31,13.19l-5.71,3.87c-.65-2.27-1.49-5.21-2.16-5.78-.66,1.48-.89,5.65-1.27,7.23-4.69-4-3.69,5.18-7.43-5.62a53.47,53.47,0,0,0-2.09,6.46c-8.06-21.78-3.89,1.47-7.62,9.86a8.34,8.34,0,0,1-1.43-2.51L295.79,382l-2.32-9.81c-2.32,4.54-.48,10.52-2.67,15.35-12.35,7.5-87.61,76.23-133.54,112.42Z"
        fill="url(#grad6)"
      />
</svg>